HIERARCHY
ROOT root
{
	OFFSET 0.000000 0.000000 0.000000
	CHANNELS 6 Xposition Yposition Zposition Zrotation Yrotation Xrotation
	JOINT lhip
	{
		OFFSET 0.058581 -0.082280 -0.017664
		CHANNELS 3 Zrotation Yrotation Xrotation
		JOINT lknee
		{
			OFFSET 0.043451 -0.386469 0.008037
			CHANNELS 3 Zrotation Yrotation Xrotation
			JOINT lankle
			{
				OFFSET -0.014790 -0.426874 -0.037428
				CHANNELS 3 Zrotation Yrotation Xrotation
				JOINT ltoe
				{
					OFFSET 0.041054 -0.060286 0.122042
					CHANNELS 3 Zrotation Yrotation Xrotation
					End Site
					{
						OFFSET 0.000000 0.000000 0.000000
					}
				}
			}
		}
	}
	JOINT rhip
	{
		OFFSET -0.060310 -0.090513 -0.013543
		CHANNELS 3 Zrotation Yrotation Xrotation
		JOINT rknee
		{
			OFFSET -0.043257 -0.383688 -0.004843
			CHANNELS 3 Zrotation Yrotation Xrotation
			JOINT rankle
			{
				OFFSET 0.019056 -0.420046 -0.034562
				CHANNELS 3 Zrotation Yrotation Xrotation
				JOINT rtoe
				{
					OFFSET -0.034840 -0.062106 0.130323
					CHANNELS 3 Zrotation Yrotation Xrotation
					End Site
					{
						OFFSET 0.000000 0.000000 0.000000
					}
				}
			}
		}
	}
	JOINT lowerback
	{
		OFFSET 0.004439 0.124404 -0.038385
		CHANNELS 3 Zrotation Yrotation Xrotation
		JOINT upperback
		{
			OFFSET 0.004488 0.137956 0.026820
			CHANNELS 3 Zrotation Yrotation Xrotation
			JOINT chest
			{
				OFFSET -0.002265 0.056032 0.002855
				CHANNELS 3 Zrotation Yrotation Xrotation
				JOINT lowerneck
				{
					OFFSET -0.013390 0.211636 -0.033468
					CHANNELS 3 Zrotation Yrotation Xrotation
					JOINT upperneck
					{
						OFFSET 0.010113 0.088937 0.050410
						CHANNELS 3 Zrotation Yrotation Xrotation
						End Site
						{
							OFFSET 0.000000 0.000000 0.000000
						}
					}
				}
				JOINT lclavicle
				{
					OFFSET 0.071702 0.114000 -0.018898
					CHANNELS 3 Zrotation Yrotation Xrotation
					JOINT lshoulder
					{
						OFFSET 0.122921 0.045205 -0.019046
						CHANNELS 3 Zrotation Yrotation Xrotation
						JOINT lelbow
						{
							OFFSET 0.255332 -0.015649 -0.022946
							CHANNELS 3 Zrotation Yrotation Xrotation
							JOINT lwrist
							{
								OFFSET 0.265709 0.012698 -0.007375
								CHANNELS 3 Zrotation Yrotation Xrotation
								End Site
								{
									OFFSET 0.000000 0.000000 0.000000
								}
							}
						}
					}
				}
				JOINT rclavicle
				{
					OFFSET -0.082954 0.112472 -0.023707
					CHANNELS 3 Zrotation Yrotation Xrotation
					JOINT rshoulder
					{
						OFFSET -0.113228 0.046853 -0.008472
						CHANNELS 3 Zrotation Yrotation Xrotation
						JOINT relbow
						{
							OFFSET -0.260127 -0.014369 -0.031269
							CHANNELS 3 Zrotation Yrotation Xrotation
							JOINT rwrist
							{
								OFFSET -0.269108 0.006794 -0.006027
								CHANNELS 3 Zrotation Yrotation Xrotation
								End Site
								{
									OFFSET 0.000000 0.000000 0.000000
								}
							}
						}
					}
				}
			}
		}
	}
}
MOTION
Frames: 14
Frame Time: 0.033333
-0.735620 -1.448573 0.964736 17.969686 -0.917406 93.035472 10.453503 4.807909 -18.355606 -10.672627 5.372292 31.219658 -1.069703 4.786383 -14.602201 0.000000 -0.000000 0.000000 -12.898396 -7.672776 -21.782942 4.372581 -10.326748 31.060909 2.136286 -4.151495 -12.700167 0.000000 -0.000000 0.000000 -2.053080 1.439954 14.566208 4.863130 -3.941893 5.927428 3.277139 -3.563352 1.811290 2.250910 4.503219 -6.537820 1.599898 -4.334305 -3.739584 -19.918651 1.794789 5.301105 -53.998753 -2.880795 15.660778 -10.670421 -55.750623 30.669986 5.074319 -7.951155 -19.300937 26.442253 0.003376 -2.536532 45.695232 18.843269 7.053216 -19.865690 46.545453 -18.001296 7.662309 4.741419 -18.702833 
-0.736639 -1.429041 0.951597 19.064932 -1.574947 94.677098 11.642589 5.388528 -25.241701 -12.828711 6.024451 38.266492 -1.397147 2.591945 -15.710331 0.000000 -0.000000 0.000000 -15.319300 -9.093589 -30.163955 5.089630 -9.913383 41.163509 3.743156 -2.393598 -12.475674 0.000000 -0.000000 0.000000 -0.965608 0.911561 19.423056 4.812066 -3.342721 4.111164 3.100082 -3.918763 1.762962 1.337645 4.674559 -10.942382 0.318641 -3.134426 -6.384959 -19.529504 2.493822 4.931625 -54.718552 -2.888445 14.082779 -6.664940 -58.920117 26.603409 6.738952 -8.898540 -21.372799 24.326426 0.136665 -3.220062 41.923658 20.849234 5.582821 -25.598819 52.844690 -24.031353 6.737978 5.908108 -22.525361 
-0.738192 -1.412894 0.927954 19.077275 -1.801335 95.689357 14.367574 7.091006 -30.505142 -10.252068 9.883040 44.251307 -0.283444 4.479575 -17.193044 0.000000 -0.000000 0.000000 -17.516927 -10.211636 -36.334147 5.546241 -9.687902 47.552157 3.378407 -2.356672 -12.696372 0.000000 -0.000000 0.000000 -0.398629 0.762326 24.640264 4.666392 -2.986235 3.334675 3.604600 -4.140883 0.899191 0.100641 3.486902 -13.517984 0.071046 1.115694 -11.365545 -19.681550 2.014648 4.692044 -58.075524 -1.455984 8.296647 0.835984 -59.451391 19.399052 11.861823 -8.199458 -24.650335 21.413379 1.926064 -3.531779 35.800090 22.123734 -0.077228 -32.691476 60.289445 -32.476478 7.920300 8.361064 -25.993783 
-0.739823 -1.397275 0.884633 18.729982 -1.188845 96.406290 20.143983 10.516552 -35.234554 -4.283282 12.898717 50.292166 1.053153 8.599467 -17.021640 0.000000 -0.000000 0.000000 -19.607182 -11.200873 -41.205769 5.775079 -7.898194 51.987965 5.450518 1.855858 -15.416517 0.000000 -0.000000 0.000000 0.152830 -0.183980 31.759272 4.647042 -2.376074 1.072413 4.628475 -4.591084 -0.189585 -0.884851 3.334384 -16.419512 -2.236613 6.649194 -14.870923 -22.528953 1.664528 5.556220 -61.668417 -0.927283 3.614623 14.433643 -56.209595 2.518904 19.462342 -2.646583 -29.310749 18.111641 3.885833 -4.984787 24.576751 25.440456 -6.859060 -44.973848 65.990588 -44.586761 -0.532274 8.930400 -30.480828 
-0.740142 -1.390927 0.852047 18.478347 -0.882214 96.549430 23.862204 13.088906 -37.430990 -2.882643 11.142721 53.034851 1.560267 8.604968 -16.757041 0.000000 -0.000000 0.000000 -20.368297 -12.528789 -44.755769 7.972822 -6.041884 57.874840 4.247452 4.121091 -20.058727 0.000000 -0.000000 0.000000 0.233896 -1.134784 34.950945 4.165898 -2.434374 1.060534 4.793937 -4.898308 -0.742942 -1.227990 3.596987 -17.742851 -2.989228 9.012733 -17.775144 -23.732836 0.896289 5.095868 -63.119037 0.057045 0.862794 19.041491 -52.624259 -5.546538 22.825484 0.963251 -30.348886 15.523143 5.745103 -5.881892 20.115298 26.999478 -10.760998 -58.051881 65.820817 -59.330171 -4.065195 6.543762 -29.094281 
-0.735790 -1.381486 0.808496 18.354562 -0.099572 95.228718 28.006560 15.532973 -38.242350 -1.127919 6.489243 54.728536 0.413896 9.293674 -17.600736 0.000000 -0.000000 0.000000 -21.268422 -14.751746 -48.611694 8.326259 -8.039043 65.490919 4.095158 5.001358 -23.817111 0.000000 -0.000000 0.000000 1.198990 -3.235941 40.688797 2.918250 -2.315543 1.306424 4.736335 -4.824955 -2.286964 -2.090655 4.788676 -19.028422 -5.131121 12.455047 -20.520555 -26.260356 -1.945592 5.579184 -63.287507 0.429010 -2.579792 21.058868 -45.190115 -9.133206 23.157541 2.582468 -33.054232 12.872258 9.896261 -5.486885 7.587048 27.434290 -21.981568 -61.347949 64.086385 -63.748857 -12.645686 9.013396 -30.579090 
-0.724871 -1.369981 0.771390 18.471269 0.545261 92.824071 31.699313 17.541092 -38.039643 1.007597 5.034816 56.650229 0.617324 9.672625 -17.719695 0.000000 -0.000000 0.000000 -22.318069 -15.946653 -50.714097 9.008511 -7.343145 71.718516 3.552224 5.350142 -25.611647 0.000000 -0.000000 0.000000 1.693446 -6.047353 46.783998 1.178096 -2.498225 2.249855 3.963384 -4.510542 -4.226874 -3.228611 3.384035 -19.121537 -4.424358 15.735065 -22.432742 -28.061860 -5.302294 5.133988 -61.828927 1.704837 -5.371707 19.840692 -38.618000 -13.308250 20.481304 1.096076 -31.977002 8.203361 14.600629 -5.528431 3.575357 25.591683 -27.518301 -66.895689 56.104812 -73.359977 -8.972477 10.711250 -23.146864 
-0.709955 -1.358993 0.739688 19.161229 0.660788 91.185182 33.189943 20.369918 -39.679836 1.282694 4.578168 60.391830 -0.098026 9.096196 -16.959722 0.000000 -0.000000 0.000000 -23.130793 -17.440610 -52.922742 9.015913 -5.556790 76.820528 3.647722 4.925537 -26.558910 0.000000 -0.000000 0.000000 1.268065 -7.354594 51.240010 -0.409441 -2.669560 1.998932 3.625372 -4.209691 -4.962625 -3.600145 1.939264 -19.038345 -3.180947 17.700818 -23.421480 -28.338564 -6.613148 4.606463 -60.499676 1.896505 -7.716581 19.065096 -35.721116 -11.683931 22.477245 0.978387 -29.896052 5.294716 17.127760 -5.071152 -1.428935 22.538334 -33.454184 -61.935486 51.478338 -71.341551 -15.782568 12.266149 -22.387901 
-0.688669 -1.345773 0.715231 20.795344 0.827551 89.510347 33.763851 22.466328 -43.470427 0.663199 7.308210 69.373185 0.229869 8.465766 -19.507143 0.000000 -0.000000 0.000000 -25.661097 -19.224699 -52.743293 8.631022 -4.744721 79.299395 5.048526 6.471820 -26.197231 0.000000 -0.000000 0.000000 1.368839 -7.515516 54.054963 -1.275139 -2.497228 1.402890 2.874427 -4.257718 -4.758715 -3.350429 1.020973 -17.702178 -2.544873 18.667272 -24.610831 -27.956529 -6.174902 4.054886 -57.801966 1.908870 -8.722675 21.797196 -39.510036 -12.759450 23.644437 0.674587 -28.565133 3.193366 16.450095 -5.842524 -1.316598 20.246468 -34.263991 -56.780908 46.843215 -70.531962 -17.336017 12.995011 -24.102934 
-0.655144 -1.323209 0.699764 21.999824 3.038846 87.543600 33.269300 26.569203 -48.008319 0.789050 7.823206 76.436105 -0.310318 9.202156 -19.693031 0.000000 -0.000000 0.000000 -26.276631 -20.333420 -50.564969 8.660375 -2.335650 77.786812 6.930362 5.826612 -22.436765 0.000000 -0.000000 0.000000 2.349936 -6.212741 55.757358 -2.110409 -1.182116 1.498154 2.818724 -2.721755 -4.933740 -4.769375 0.168297 -16.223194 0.597383 17.102188 -23.048670 -27.132374 -6.097251 3.218973 -50.523408 3.260540 -10.252211 24.166632 -50.933148 -9.099043 22.302897 -3.157211 -25.394455 5.138976 16.374861 -2.675177 -2.787412 11.126012 -35.822663 -48.232804 46.445582 -65.099193 -21.802348 14.093064 -27.273569 
-0.620636 -1.305566 0.699179 24.702662 4.477566 86.139406 32.825027 25.258407 -50.060227 -2.152937 7.846189 80.326624 -2.589990 7.877212 -19.136999 0.000000 -0.000000 0.000000 -29.015823 -22.139840 -45.752037 8.235334 -2.491754 74.584495 10.115681 6.651734 -20.189446 0.000000 -0.000000 0.000000 2.455623 -2.967001 53.749710 -0.052318 -1.365466 2.315659 3.543615 -2.698308 -2.904207 -0.832284 1.219032 -14.934608 1.249854 13.405484 -19.328734 -24.914101 -5.463661 1.683187 -43.581959 1.938193 -8.513544 27.312709 -60.127766 -6.805837 23.270911 -6.787387 -19.077970 7.694045 14.061953 -4.319583 1.414377 10.993082 -31.485475 -45.077005 43.690756 -62.770835 -22.293671 13.935026 -27.121183 
-0.579850 -1.284367 0.709538 26.356633 6.385709 85.988746 32.645049 24.175007 -50.682980 -2.731140 10.817668 81.897974 -3.544036 6.070987 -22.069082 0.000000 -0.000000 0.000000 -30.785135 -21.725435 -40.136080 7.722154 -2.159915 67.007952 13.516148 6.576242 -15.710476 0.000000 -0.000000 0.000000 1.842506 1.017964 49.720024 2.604686 -1.689705 3.674769 4.632753 -2.249062 -2.735660 1.449395 4.317078 -12.228843 2.538387 10.170575 -16.049894 -21.982866 -5.414414 2.890320 -37.144869 0.490568 -6.632951 34.618884 -69.780539 -11.666373 24.324014 -8.905408 -18.254679 13.143500 11.679690 -2.892874 4.573270 11.262610 -28.099781 -44.094325 43.101875 -62.517105 -22.990246 12.913893 -28.252997 
-0.530316 -1.259969 0.731312 28.343782 8.667046 86.545069 30.351736 22.938137 -51.063252 -2.311227 12.552348 81.957363 -2.704297 5.373441 -25.579541 0.000000 -0.000000 0.000000 -31.764279 -20.165636 -32.264351 7.000100 -0.457806 54.555693 18.520924 5.202616 -8.081633 0.000000 -0.000000 0.000000 1.529235 4.096898 44.267006 5.786656 -2.410830 4.633273 5.778565 -1.932774 -0.979553 5.121488 6.251873 -10.571420 3.851246 6.195614 -10.961858 -19.749891 -4.923248 3.828024 -32.701419 -2.331488 -3.331048 55.097228 -76.681024 -32.375902 25.427854 -9.814316 -18.259070 18.548236 8.909508 -3.144677 6.675196 12.752935 -24.359409 -43.996880 41.678713 -62.774113 -21.414097 13.549152 -27.472074 
-0.474941 -1.228245 0.761670 28.989038 10.668575 87.594029 27.224427 19.704857 -50.265659 -0.899346 14.392183 80.071997 -0.272500 7.300836 -28.345850 0.000000 -0.000000 0.000000 -30.910240 -17.729098 -27.430485 3.361344 -0.794558 42.736994 22.101529 0.294836 5.022417 0.000000 -0.000000 0.000000 1.569206 5.301301 40.396127 7.691525 -2.204508 3.433812 6.975067 -1.602449 0.579700 7.708661 4.829604 -7.499019 4.671221 6.001711 -7.131019 -18.597733 -3.247715 4.949697 -30.676232 -3.533516 -1.137276 95.690057 -80.583466 -72.084413 26.640055 -9.978784 -17.747900 20.497318 6.667259 -3.283006 9.156314 13.780779 -20.715892 -44.594533 40.294609 -63.944690 -21.729203 10.303467 -27.698681 
